<svg xmlns="http://www.w3.org/2000/svg" version="1.1" xmlns:xlink="http://www.w3.org/1999/xlink" xmlns:svgjs="http://svgjs.dev/svgjs" width="2000" height="2000" viewBox="0 0 2000 2000"><g transform="matrix(1,0,0,1,-0.28443113772425477,-0.28443113772459583)"><svg viewBox="0 0 334 334" data-background-color="#ffffff" preserveAspectRatio="xMidYMid meet" height="2000" width="2000" xmlns="http://www.w3.org/2000/svg" xmlns:xlink="http://www.w3.org/1999/xlink"><g id="tight-bounds" transform="matrix(1,0,0,1,0.04749999999998522,0.04750000000001364)"><svg viewBox="0 0 333.90454557049503 333.90454557049503" height="333.90454557049503" width="333.90454557049503"><g><svg></svg></g><g><svg viewBox="0 0 333.90454557049503 333.90454557049503" height="333.90454557049503" width="333.90454557049503"><g><path d="M0 166.952c0-92.205 74.747-166.952 166.952-166.952 92.205 0 166.952 74.747 166.953 166.952 0 92.205-74.747 166.952-166.953 166.953-92.205 0-166.952-74.747-166.952-166.953zM166.952 316.63c82.665 0 149.677-67.013 149.678-149.678 0-82.665-67.013-149.677-149.678-149.677-82.665 0-149.677 67.013-149.677 149.677 0 82.665 67.013 149.677 149.677 149.678z" data-fill-palette-color="tertiary" fill="#0063db" stroke="transparent"></path><ellipse rx="160.27418187383762" ry="160.27418187383762" cx="166.95227278524752" cy="166.95227278524752" fill="#0063db" stroke="transparent" stroke-width="0" fill-opacity="1" data-fill-palette-color="tertiary"></ellipse></g><g transform="matrix(1,0,0,1,103.51008807014404,71.17305217166896)"><svg viewBox="0 0 126.88436943020697 191.55844122715712" height="191.55844122715712" width="126.88436943020697"><g><svg viewBox="0 0 126.88436943020697 191.55844122715712" height="191.55844122715712" width="126.88436943020697"><g><svg viewBox="0 0 126.88436943020697 191.55844122715712" height="191.55844122715712" width="126.88436943020697"><g><svg viewBox="0 0 126.88436943020697 191.55844122715712" height="191.55844122715712" width="126.88436943020697"><g id="textblocktransform"><svg viewBox="0 0 126.88436943020697 191.55844122715712" height="191.55844122715712" width="126.88436943020697" id="textblock"><g><svg viewBox="0 0 126.88436943020697 191.55844122715712" height="191.55844122715712" width="126.88436943020697"><g transform="matrix(1,0,0,1,0,0)"><svg width="126.88436943020697" viewBox="4.2 -30.37 20.12 30.37" height="191.55844122715712" data-palette-color="#ffffff"><path d="M5.52 0Q4.83 0 4.52-0.32 4.2-0.63 4.2-1.29L4.2-1.29 4.2-29.08Q4.2-29.76 4.52-30.07 4.83-30.37 5.52-30.37L5.52-30.37 13.28-30.37Q16.46-30.37 18.63-29.42 20.8-28.47 21.9-26.73 23-25 23-22.71L23-22.71Q23-21.29 22.34-19.89 21.68-18.48 20.58-17.47 19.48-16.46 18.24-16.11L18.24-16.11 18.24-15.94Q18.24-16.11 19.92-15.3 21.61-14.48 22.96-12.88 24.32-11.28 24.32-8.74L24.32-8.74Q24.32 0 12.99 0L12.99 0 5.52 0ZM8.03-17.29L13.09-17.29Q14.79-17.29 16.16-17.96 17.53-18.63 18.3-19.79 19.07-20.95 19.07-22.36L19.07-22.36Q19.07-24.8 17.6-25.94 16.14-27.08 12.92-27.08L12.92-27.08 8.03-27.08 8.03-17.29ZM8.03-3.3L14.38-3.3Q17.24-3.3 18.8-4.8 20.36-6.3 20.36-8.91L20.36-8.91Q20.36-11.33 18.65-12.66 16.94-13.99 13.62-13.99L13.62-13.99 8.03-13.99 8.03-3.3Z" opacity="1" transform="matrix(1,0,0,1,0,0)" fill="#ffffff" class="wordmark-text-0" data-fill-palette-color="quaternary" id="text-0"></path></svg></g></svg></g></svg></g></svg></g><g></g></svg></g></svg></g></svg></g></svg></g><defs></defs></svg><rect width="333.90454557049503" height="333.90454557049503" fill="none" stroke="none" visibility="hidden"></rect></g></svg></g></svg>